<svg xmlns="http://www.w3.org/2000/svg" xmlns:xlink="http://www.w3.org/1999/xlink" width="2000" zoomAndPan="magnify" viewBox="0 0 1500 1499.999933" height="2000" preserveAspectRatio="xMidYMid meet" version="1.0"><defs><clipPath id="47f82df5be"><path d="M 123.191406 36.523438 L 1357.273438 36.523438 L 1357.273438 1270.609375 L 123.191406 1270.609375 Z M 123.191406 36.523438 " clip-rule="nonzero"/></clipPath><clipPath id="02c1fddbc0"><path d="M 740.230469 36.523438 C 399.449219 36.523438 123.191406 312.785156 123.191406 653.566406 C 123.191406 994.347656 399.449219 1270.609375 740.230469 1270.609375 C 1081.011719 1270.609375 1357.273438 994.347656 1357.273438 653.566406 C 1357.273438 312.785156 1081.011719 36.523438 740.230469 36.523438 Z M 740.230469 36.523438 " clip-rule="nonzero"/></clipPath><clipPath id="d4c4a22ab2"><path d="M 0.191406 0.523438 L 1234.273438 0.523438 L 1234.273438 1234.609375 L 0.191406 1234.609375 Z M 0.191406 0.523438 " clip-rule="nonzero"/></clipPath><clipPath id="da92bc8cfc"><path d="M 617.230469 0.523438 C 276.449219 0.523438 0.191406 276.785156 0.191406 617.566406 C 0.191406 958.347656 276.449219 1234.609375 617.230469 1234.609375 C 958.011719 1234.609375 1234.273438 958.347656 1234.273438 617.566406 C 1234.273438 276.785156 958.011719 0.523438 617.230469 0.523438 Z M 617.230469 0.523438 " clip-rule="nonzero"/></clipPath><clipPath id="f783e65d78"><rect x="0" width="1235" y="0" height="1235"/></clipPath><clipPath id="336d72fb5e"><path d="M 167.867188 81.199219 L 1312.597656 81.199219 L 1312.597656 1225.933594 L 167.867188 1225.933594 Z M 167.867188 81.199219 " clip-rule="nonzero"/></clipPath><clipPath id="d5b570e98e"><path d="M 740.230469 81.199219 C 424.121094 81.199219 167.867188 337.457031 167.867188 653.566406 C 167.867188 969.675781 424.121094 1225.933594 740.230469 1225.933594 C 1056.339844 1225.933594 1312.597656 969.675781 1312.597656 653.566406 C 1312.597656 337.457031 1056.339844 81.199219 740.230469 81.199219 Z M 740.230469 81.199219 " clip-rule="nonzero"/></clipPath><clipPath id="53fa069de5"><path d="M 0.867188 0.199219 L 1145.597656 0.199219 L 1145.597656 1144.933594 L 0.867188 1144.933594 Z M 0.867188 0.199219 " clip-rule="nonzero"/></clipPath><clipPath id="9cec57764e"><path d="M 573.230469 0.199219 C 257.121094 0.199219 0.867188 256.457031 0.867188 572.566406 C 0.867188 888.675781 257.121094 1144.933594 573.230469 1144.933594 C 889.339844 1144.933594 1145.597656 888.675781 1145.597656 572.566406 C 1145.597656 256.457031 889.339844 0.199219 573.230469 0.199219 Z M 573.230469 0.199219 " clip-rule="nonzero"/></clipPath><clipPath id="b713cdd64b"><rect x="0" width="1146" y="0" height="1145"/></clipPath><clipPath id="5cffbcb484"><path d="M 123.191406 1007.589844 L 740.230469 1007.589844 L 740.230469 1500 L 123.191406 1500 Z M 123.191406 1007.589844 " clip-rule="nonzero"/></clipPath><clipPath id="da86667154"><path d="M 431.710938 1007.589844 C 261.320312 1007.589844 123.191406 1154.488281 123.191406 1335.703125 C 123.191406 1516.914062 261.320312 1663.816406 431.710938 1663.816406 C 602.101562 1663.816406 740.230469 1516.914062 740.230469 1335.703125 C 740.230469 1154.488281 602.101562 1007.589844 431.710938 1007.589844 Z M 431.710938 1007.589844 " clip-rule="nonzero"/></clipPath><clipPath id="d2b67841c5"><path d="M 0.191406 0.589844 L 617.230469 0.589844 L 617.230469 493 L 0.191406 493 Z M 0.191406 0.589844 " clip-rule="nonzero"/></clipPath><clipPath id="911d1b5e7d"><path d="M 308.710938 0.589844 C 138.320312 0.589844 0.191406 147.488281 0.191406 328.703125 C 0.191406 509.914062 138.320312 656.816406 308.710938 656.816406 C 479.101562 656.816406 617.230469 509.914062 617.230469 328.703125 C 617.230469 147.488281 479.101562 0.589844 308.710938 0.589844 Z M 308.710938 0.589844 " clip-rule="nonzero"/></clipPath><clipPath id="00d5271194"><rect x="0" width="618" y="0" height="493"/></clipPath><clipPath id="086aeefa66"><path d="M 644 653 L 1500 653 L 1500 1500 L 644 1500 Z M 644 653 " clip-rule="nonzero"/></clipPath><clipPath id="7de666011c"><path d="M 700.414062 601.195312 L 1612.511719 712.609375 L 1507.648438 1571.050781 L 595.554688 1459.636719 Z M 700.414062 601.195312 " clip-rule="nonzero"/></clipPath><clipPath id="d936bd57dc"><path d="M 1155.820312 656.824219 C 904.308594 626.101562 676.941406 793.363281 647.984375 1030.414062 C 619.027344 1267.46875 799.445312 1484.542969 1050.960938 1515.265625 C 1302.472656 1545.988281 1529.839844 1378.726562 1558.796875 1141.675781 C 1587.753906 904.621094 1407.335938 687.546875 1155.820312 656.824219 Z M 1155.820312 656.824219 " clip-rule="nonzero"/></clipPath><clipPath id="e326393f35"><path d="M 0 0 L 856 0 L 856 847 L 0 847 Z M 0 0 " clip-rule="nonzero"/></clipPath><clipPath id="8dfed2c56a"><path d="M 56.414062 -51.804688 L 968.511719 59.609375 L 863.648438 918.050781 L -48.445312 806.636719 Z M 56.414062 -51.804688 " clip-rule="nonzero"/></clipPath><clipPath id="138521b3a8"><path d="M 511.820312 3.824219 C 260.308594 -26.898438 32.941406 140.363281 3.984375 377.414062 C -24.972656 614.46875 155.445312 831.542969 406.960938 862.265625 C 658.472656 892.988281 885.839844 725.726562 914.796875 488.675781 C 943.753906 251.621094 763.335938 34.546875 511.820312 3.824219 Z M 511.820312 3.824219 " clip-rule="nonzero"/></clipPath><clipPath id="9fd118536b"><rect x="0" width="856" y="0" height="847"/></clipPath><clipPath id="74e9eaceac"><path d="M 15 271 L 1034.945312 271 L 1034.945312 1394 L 15 1394 Z M 15 271 " clip-rule="nonzero"/></clipPath><clipPath id="b497000d09"><path d="M 55 44 L 841 44 L 841 882 L 55 882 Z M 55 44 " clip-rule="nonzero"/></clipPath><clipPath id="a77dd41eb8"><path d="M 109.710938 0.199219 L 887.832031 95.25 L 786.097656 928.085938 L 7.976562 833.035156 Z M 109.710938 0.199219 " clip-rule="nonzero"/></clipPath><clipPath id="50e4d0f84a"><path d="M 498.769531 47.726562 C 283.898438 21.480469 86.976562 186.300781 58.933594 415.871094 C 30.890625 645.4375 182.347656 852.816406 397.21875 879.0625 C 612.09375 905.3125 809.015625 740.488281 837.058594 510.921875 C 865.101562 281.351562 713.644531 73.972656 498.769531 47.726562 Z M 498.769531 47.726562 " clip-rule="nonzero"/></clipPath><clipPath id="7a212ad42a"><path d="M 0 0 L 786 0 L 786 838 L 0 838 Z M 0 0 " clip-rule="nonzero"/></clipPath><clipPath id="e9e02f75ba"><path d="M 54.710938 -43.800781 L 832.832031 51.25 L 731.097656 884.085938 L -47.023438 789.035156 Z M 54.710938 -43.800781 " clip-rule="nonzero"/></clipPath><clipPath id="9542c4dd9b"><path d="M 443.769531 3.726562 C 228.898438 -22.519531 31.976562 142.300781 3.933594 371.871094 C -24.109375 601.4375 127.347656 808.816406 342.21875 835.0625 C 557.09375 861.3125 754.015625 696.488281 782.058594 466.921875 C 810.101562 237.351562 658.644531 29.972656 443.769531 3.726562 Z M 443.769531 3.726562 " clip-rule="nonzero"/></clipPath><clipPath id="6ccaf1c674"><rect x="0" width="786" y="0" height="838"/></clipPath><clipPath id="b28d916da4"><rect x="0" width="1049" y="0" height="1408"/></clipPath><clipPath id="fed33958d1"><path d="M 450.414062 311.378906 L 1030.046875 311.378906 L 1030.046875 891.011719 L 450.414062 891.011719 Z M 450.414062 311.378906 " clip-rule="nonzero"/></clipPath><clipPath id="f649c30efe"><path d="M 833.914062 311.378906 L 646.550781 311.378906 C 638.265625 311.378906 631.550781 318.09375 631.550781 326.378906 L 631.550781 477.511719 C 631.550781 485.796875 624.835938 492.511719 616.550781 492.511719 L 465.414062 492.511719 C 457.128906 492.511719 450.414062 499.230469 450.414062 507.511719 L 450.414062 694.875 C 450.414062 703.160156 457.128906 709.875 465.414062 709.875 L 616.550781 709.875 C 624.835938 709.875 631.550781 716.589844 631.550781 724.875 L 631.550781 876.011719 C 631.550781 884.296875 638.265625 891.011719 646.550781 891.011719 L 833.914062 891.011719 C 842.195312 891.011719 848.914062 884.296875 848.914062 876.011719 L 848.914062 724.875 C 848.914062 716.589844 855.628906 709.875 863.914062 709.875 L 1015.046875 709.875 C 1023.332031 709.875 1030.046875 703.160156 1030.046875 694.875 L 1030.046875 507.511719 C 1030.046875 499.230469 1023.332031 492.511719 1015.046875 492.511719 L 863.914062 492.511719 C 855.628906 492.511719 848.914062 485.796875 848.914062 477.511719 L 848.914062 326.378906 C 848.914062 318.09375 842.195312 311.378906 833.914062 311.378906 Z M 833.914062 311.378906 " clip-rule="nonzero"/></clipPath><clipPath id="3cb6b5f415"><path d="M 0.414062 0.378906 L 580.046875 0.378906 L 580.046875 580.011719 L 0.414062 580.011719 Z M 0.414062 0.378906 " clip-rule="nonzero"/></clipPath><clipPath id="289fa3f6ea"><path d="M 383.914062 0.378906 L 196.550781 0.378906 C 188.265625 0.378906 181.550781 7.09375 181.550781 15.378906 L 181.550781 166.511719 C 181.550781 174.796875 174.835938 181.511719 166.550781 181.511719 L 15.414062 181.511719 C 7.128906 181.511719 0.414062 188.230469 0.414062 196.511719 L 0.414062 383.875 C 0.414062 392.160156 7.128906 398.875 15.414062 398.875 L 166.550781 398.875 C 174.835938 398.875 181.550781 405.589844 181.550781 413.875 L 181.550781 565.011719 C 181.550781 573.296875 188.265625 580.011719 196.550781 580.011719 L 383.914062 580.011719 C 392.195312 580.011719 398.914062 573.296875 398.914062 565.011719 L 398.914062 413.875 C 398.914062 405.589844 405.628906 398.875 413.914062 398.875 L 565.046875 398.875 C 573.332031 398.875 580.046875 392.160156 580.046875 383.875 L 580.046875 196.511719 C 580.046875 188.230469 573.332031 181.511719 565.046875 181.511719 L 413.914062 181.511719 C 405.628906 181.511719 398.914062 174.796875 398.914062 166.511719 L 398.914062 15.378906 C 398.914062 7.09375 392.195312 0.378906 383.914062 0.378906 Z M 383.914062 0.378906 " clip-rule="nonzero"/></clipPath><clipPath id="07a0144c1a"><rect x="0" width="581" y="0" height="581"/></clipPath></defs><rect x="-150" width="1800" fill="#ffffff" y="-149.999993" height="1799.99992" fill-opacity="1"/><rect x="-150" width="1800" fill="#ffffff" y="-149.999993" height="1799.99992" fill-opacity="1"/><g clip-path="url(#47f82df5be)"><g clip-path="url(#02c1fddbc0)"><g transform="matrix(1, 0, 0, 1, 123, 36)"><g clip-path="url(#f783e65d78)"><g clip-path="url(#d4c4a22ab2)"><g clip-path="url(#da92bc8cfc)"><path fill="#000000" d="M 0.191406 0.523438 L 1234.273438 0.523438 L 1234.273438 1234.609375 L 0.191406 1234.609375 Z M 0.191406 0.523438 " fill-opacity="1" fill-rule="nonzero"/></g></g></g></g></g></g><g clip-path="url(#336d72fb5e)"><g clip-path="url(#d5b570e98e)"><g transform="matrix(1, 0, 0, 1, 167, 81)"><g clip-path="url(#b713cdd64b)"><g clip-path="url(#53fa069de5)"><g clip-path="url(#9cec57764e)"><path fill="#ffffff" d="M 0.867188 0.199219 L 1145.597656 0.199219 L 1145.597656 1144.933594 L 0.867188 1144.933594 Z M 0.867188 0.199219 " fill-opacity="1" fill-rule="nonzero"/></g></g></g></g></g></g><g clip-path="url(#5cffbcb484)"><g clip-path="url(#da86667154)"><g transform="matrix(1, 0, 0, 1, 123, 1007)"><g clip-path="url(#00d5271194)"><g clip-path="url(#d2b67841c5)"><g clip-path="url(#911d1b5e7d)"><path fill="#ffffff" d="M 0.191406 0.589844 L 617.230469 0.589844 L 617.230469 656.195312 L 0.191406 656.195312 Z M 0.191406 0.589844 " fill-opacity="1" fill-rule="nonzero"/></g></g></g></g></g></g><g clip-path="url(#086aeefa66)"><g clip-path="url(#7de666011c)"><g clip-path="url(#d936bd57dc)"><g transform="matrix(1, 0, 0, 1, 644, 653)"><g clip-path="url(#9fd118536b)"><g clip-path="url(#e326393f35)"><g clip-path="url(#8dfed2c56a)"><g clip-path="url(#138521b3a8)"><path fill="#ffffff" d="M 56.414062 -51.804688 L 968.511719 59.609375 L 863.648438 918.050781 L -48.445312 806.636719 Z M 56.414062 -51.804688 " fill-opacity="1" fill-rule="nonzero"/></g></g></g></g></g></g></g></g><g transform="matrix(1, 0, 0, 1, 322, 81)"><g clip-path="url(#b28d916da4)"><g clip-path="url(#74e9eaceac)"><path fill="#ff5757" d="M 722.027344 1202.839844 C 734.78125 1192.582031 746.714844 1181.449219 757.835938 1169.441406 L 1011.316406 905.433594 C 1013.1875 903.488281 1014.957031 901.449219 1016.625 899.328125 C 1018.296875 897.207031 1019.855469 895.003906 1021.308594 892.726562 C 1022.761719 890.453125 1024.097656 888.109375 1025.316406 885.699219 C 1026.535156 883.289062 1027.636719 880.828125 1028.613281 878.308594 C 1029.589844 875.792969 1030.4375 873.230469 1031.164062 870.628906 C 1031.886719 868.027344 1032.480469 865.398438 1032.945312 862.738281 C 1033.40625 860.078125 1033.738281 857.398438 1033.9375 854.707031 C 1034.136719 852.011719 1034.203125 849.316406 1034.136719 846.617188 L 1034.136719 841.113281 L 1033.988281 841.113281 C 1033.554688 836.171875 1032.683594 831.308594 1031.371094 826.527344 C 1030.0625 821.746094 1028.335938 817.117188 1026.195312 812.644531 C 1024.054688 808.171875 1021.527344 803.925781 1018.621094 799.910156 C 1015.714844 795.890625 1012.472656 792.164062 1008.898438 788.730469 C 1005.386719 785.371094 1001.605469 782.347656 997.554688 779.664062 C 993.503906 776.976562 989.25 774.671875 984.789062 772.746094 C 980.324219 770.824219 975.730469 769.308594 970.996094 768.203125 C 966.265625 767.101562 961.472656 766.425781 956.617188 766.175781 C 955.898438 762.335938 954.914062 758.5625 953.667969 754.855469 C 951.523438 748.695312 948.675781 742.882812 945.117188 737.414062 C 941.558594 731.945312 937.398438 726.988281 932.632812 722.53125 L 930.964844 720.925781 C 927.449219 717.742188 923.683594 714.886719 919.667969 712.359375 C 915.652344 709.832031 911.449219 707.667969 907.058594 705.875 C 902.667969 704.078125 898.152344 702.675781 893.519531 701.667969 C 888.882812 700.65625 884.195312 700.054688 879.453125 699.863281 L 873.785156 699.714844 C 871.089844 699.761719 868.398438 699.941406 865.71875 700.257812 C 863.039062 700.570312 860.378906 701.015625 857.742188 701.589844 C 855.105469 702.164062 852.503906 702.871094 849.9375 703.703125 C 847.371094 704.535156 844.847656 705.492188 842.375 706.574219 C 839.902344 707.65625 837.492188 708.855469 835.136719 710.175781 C 832.78125 711.496094 830.5 712.929688 828.285156 714.472656 C 826.074219 716.019531 823.941406 717.667969 821.894531 719.425781 C 819.84375 721.179688 817.882812 723.035156 816.019531 724.984375 L 627.152344 921.847656 L 276.996094 929.375 L 275.945312 929.257812 C 270.050781 928.949219 264.1875 929.277344 258.363281 930.242188 C 252.535156 931.203125 246.878906 932.78125 241.394531 934.96875 C 236.171875 937.011719 231.214844 939.578125 226.53125 942.660156 C 221.84375 945.746094 217.53125 949.28125 213.585938 953.269531 L 21.078125 1153.75 C 20.050781 1154.796875 19.144531 1155.941406 18.355469 1157.175781 C 17.570312 1158.410156 16.914062 1159.714844 16.394531 1161.082031 C 15.875 1162.453125 15.5 1163.863281 15.273438 1165.308594 C 15.046875 1166.757812 14.96875 1168.214844 15.039062 1169.675781 L 19.246094 1370.230469 L 19.128906 1372.003906 C 19.148438 1372.714844 19.199219 1373.429688 19.289062 1374.136719 C 19.375 1374.847656 19.5 1375.550781 19.65625 1376.246094 C 19.8125 1376.941406 20.003906 1377.632812 20.226562 1378.308594 C 20.449219 1378.988281 20.707031 1379.652344 20.996094 1380.308594 C 21.28125 1380.960938 21.601562 1381.597656 21.953125 1382.222656 C 22.304688 1382.84375 22.683594 1383.449219 23.09375 1384.03125 C 23.503906 1384.617188 23.941406 1385.183594 24.40625 1385.726562 C 24.871094 1386.265625 25.359375 1386.785156 25.875 1387.28125 C 26.390625 1387.777344 26.929688 1388.246094 27.492188 1388.6875 C 28.050781 1389.128906 28.632812 1389.542969 29.234375 1389.929688 C 29.835938 1390.3125 30.453125 1390.671875 31.089844 1390.996094 C 31.726562 1391.320312 32.378906 1391.613281 33.042969 1391.875 C 33.707031 1392.136719 34.382812 1392.367188 35.070312 1392.5625 C 35.757812 1392.757812 36.453125 1392.921875 37.152344 1393.050781 C 37.855469 1393.175781 38.5625 1393.269531 39.277344 1393.332031 C 39.988281 1393.390625 40.703125 1393.414062 41.414062 1393.402344 L 219.371094 1389.566406 C 220.84375 1389.546875 222.300781 1389.378906 223.738281 1389.0625 C 225.175781 1388.746094 226.566406 1388.289062 227.914062 1387.691406 C 229.257812 1387.09375 230.527344 1386.363281 231.722656 1385.507812 C 232.921875 1384.648438 234.019531 1383.679688 235.019531 1382.597656 L 277.140625 1336.683594 L 681.4375 1225.984375 C 696.269531 1220.550781 709.796875 1212.835938 722.027344 1202.839844 Z M 874.597656 743.402344 L 876.664062 743.402344 C 879.046875 743.46875 881.402344 743.75 883.734375 744.246094 C 886.066406 744.742188 888.332031 745.449219 890.53125 746.363281 C 892.734375 747.277344 894.832031 748.382812 896.832031 749.679688 C 898.828125 750.980469 900.691406 752.449219 902.421875 754.089844 C 906.925781 758.429688 910.277344 763.527344 912.488281 769.378906 C 913.164062 771.292969 913.589844 773.261719 913.769531 775.285156 C 905.753906 779.453125 898.582031 784.761719 892.25 791.210938 L 715.8125 975.054688 C 713.699219 969.25 710.953125 963.761719 707.578125 958.589844 C 704.207031 953.414062 700.289062 948.691406 695.828125 944.414062 C 690.46875 939.40625 684.566406 935.148438 678.117188 931.648438 L 847.335938 755.121094 C 849.117188 753.300781 851.054688 751.671875 853.15625 750.234375 C 855.253906 748.792969 857.472656 747.570312 859.808594 746.566406 C 862.148438 745.5625 864.5625 744.792969 867.050781 744.261719 C 869.539062 743.726562 872.054688 743.441406 874.597656 743.402344 Z M 668.761719 1184.316406 L 259.800781 1296.285156 C 257.660156 1296.824219 255.65625 1297.679688 253.789062 1298.851562 C 251.921875 1300.023438 250.277344 1301.457031 248.863281 1303.148438 L 209.277344 1346.21875 L 62.269531 1349.257812 L 58.757812 1177.617188 L 244.480469 983.957031 C 246.402344 982.019531 248.507812 980.3125 250.796875 978.832031 C 253.089844 977.351562 255.511719 976.132812 258.0625 975.175781 C 260.617188 974.214844 263.242188 973.542969 265.941406 973.152344 C 268.640625 972.761719 271.351562 972.664062 274.074219 972.855469 L 637.898438 965.078125 C 640.261719 965.03125 642.609375 965.199219 644.941406 965.582031 C 647.277344 965.964844 649.554688 966.554688 651.78125 967.355469 C 654.003906 968.15625 656.136719 969.148438 658.179688 970.339844 C 660.222656 971.53125 662.140625 972.894531 663.933594 974.4375 L 665.410156 975.910156 C 667.132812 977.523438 668.695312 979.277344 670.097656 981.175781 C 671.5 983.078125 672.714844 985.089844 673.742188 987.210938 C 674.773438 989.335938 675.597656 991.535156 676.222656 993.8125 C 676.847656 996.085938 677.257812 998.402344 677.453125 1000.753906 L 677.453125 1003.128906 C 677.5 1005.683594 677.296875 1008.214844 676.84375 1010.726562 C 676.390625 1013.242188 675.691406 1015.683594 674.753906 1018.058594 C 673.816406 1020.433594 672.652344 1022.695312 671.265625 1024.839844 C 669.878906 1026.984375 668.296875 1028.972656 666.515625 1030.804688 C 664.769531 1032.648438 662.859375 1034.300781 660.785156 1035.761719 C 658.707031 1037.226562 656.507812 1038.46875 654.183594 1039.492188 C 651.859375 1040.515625 649.457031 1041.300781 646.976562 1041.847656 C 644.496094 1042.390625 641.988281 1042.683594 639.449219 1042.730469 L 388.460938 1047.9375 C 387.738281 1047.945312 387.015625 1047.984375 386.296875 1048.0625 C 385.578125 1048.136719 384.863281 1048.25 384.15625 1048.398438 C 383.449219 1048.546875 382.75 1048.726562 382.058594 1048.945312 C 381.371094 1049.160156 380.691406 1049.410156 380.027344 1049.695312 C 379.363281 1049.976562 378.714844 1050.292969 378.082031 1050.644531 C 377.445312 1050.992188 376.832031 1051.371094 376.234375 1051.777344 C 375.640625 1052.1875 375.066406 1052.625 374.511719 1053.09375 C 373.960938 1053.558594 373.433594 1054.050781 372.929688 1054.570312 C 372.425781 1055.085938 371.949219 1055.628906 371.496094 1056.195312 C 371.046875 1056.761719 370.625 1057.347656 370.234375 1057.957031 C 369.84375 1058.5625 369.480469 1059.1875 369.152344 1059.832031 C 368.820312 1060.476562 368.523438 1061.132812 368.261719 1061.804688 C 367.996094 1062.480469 367.765625 1063.164062 367.566406 1063.859375 C 367.371094 1064.554688 367.210938 1065.257812 367.082031 1065.96875 C 366.957031 1066.683594 366.863281 1067.398438 366.808594 1068.121094 C 366.75 1068.839844 366.730469 1069.5625 366.746094 1070.285156 C 366.761719 1071.007812 366.8125 1071.726562 366.902344 1072.445312 C 366.988281 1073.164062 367.109375 1073.875 367.269531 1074.582031 C 367.425781 1075.285156 367.617188 1075.980469 367.84375 1076.667969 C 368.070312 1077.355469 368.332031 1078.027344 368.625 1078.691406 C 368.917969 1079.351562 369.242188 1079.996094 369.601562 1080.625 C 369.957031 1081.253906 370.347656 1081.863281 370.761719 1082.453125 C 371.179688 1083.042969 371.628906 1083.609375 372.101562 1084.15625 C 372.574219 1084.703125 373.074219 1085.222656 373.601562 1085.71875 C 374.125 1086.214844 374.675781 1086.683594 375.25 1087.125 C 375.820312 1087.566406 376.414062 1087.980469 377.027344 1088.363281 C 377.640625 1088.746094 378.269531 1089.097656 378.917969 1089.417969 C 379.566406 1089.738281 380.226562 1090.027344 380.90625 1090.28125 C 381.582031 1090.535156 382.269531 1090.757812 382.96875 1090.945312 C 383.667969 1091.132812 384.371094 1091.28125 385.085938 1091.398438 C 385.800781 1091.515625 386.515625 1091.597656 387.238281 1091.644531 C 387.960938 1091.6875 388.683594 1091.699219 389.40625 1091.671875 L 640.570312 1086.492188 C 643.269531 1086.4375 645.960938 1086.25 648.640625 1085.933594 C 651.324219 1085.613281 653.984375 1085.160156 656.621094 1084.578125 C 659.257812 1083.992188 661.859375 1083.28125 664.425781 1082.441406 C 666.992188 1081.597656 669.507812 1080.632812 671.980469 1079.542969 C 674.449219 1078.453125 676.863281 1077.242188 679.210938 1075.914062 C 681.5625 1074.582031 683.84375 1073.140625 686.050781 1071.585938 C 688.257812 1070.03125 690.382812 1068.371094 692.425781 1066.605469 C 694.46875 1064.839844 696.421875 1062.976562 698.28125 1061.015625 C 703.199219 1055.714844 707.355469 1049.867188 710.75 1043.480469 L 923.761719 821.464844 C 925.511719 819.609375 927.429688 817.945312 929.515625 816.472656 C 931.601562 815.003906 933.8125 813.753906 936.148438 812.730469 C 938.484375 811.707031 940.902344 810.925781 943.394531 810.386719 C 945.890625 809.851562 948.414062 809.570312 950.964844 809.539062 L 952.824219 809.539062 C 955.207031 809.585938 957.5625 809.851562 959.898438 810.339844 C 962.230469 810.824219 964.496094 811.519531 966.699219 812.425781 C 968.902344 813.335938 971.003906 814.4375 973 815.738281 C 974.996094 817.035156 976.855469 818.507812 978.582031 820.152344 C 980.289062 821.820312 981.835938 823.621094 983.21875 825.566406 C 984.601562 827.507812 985.800781 829.558594 986.816406 831.71875 C 987.832031 833.875 988.648438 836.109375 989.261719 838.414062 C 989.878906 840.71875 990.28125 843.058594 990.476562 845.4375 L 990.476562 847.519531 C 990.523438 850.0625 990.320312 852.589844 989.871094 855.097656 C 989.421875 857.605469 988.734375 860.046875 987.808594 862.417969 C 986.886719 864.792969 985.738281 867.050781 984.371094 869.203125 C 983.007812 871.351562 981.445312 873.347656 979.6875 875.191406 L 726.042969 1139.699219 C 716.503906 1150.109375 706.238281 1159.742188 695.238281 1168.597656 C 687.261719 1175.269531 678.4375 1180.511719 668.761719 1184.316406 Z M 295.472656 780.050781 C 297.707031 780.734375 299.988281 781.070312 302.324219 781.054688 L 596.808594 778.222656 C 597.546875 778.222656 598.179688 778.058594 598.875 778 C 599.46875 777.988281 600.058594 777.929688 600.644531 777.824219 C 601.855469 777.605469 603.042969 777.289062 604.203125 776.878906 L 604.554688 776.757812 C 605.578125 776.402344 606.558594 775.964844 607.507812 775.445312 C 608.097656 775.136719 608.675781 774.753906 609.234375 774.398438 C 609.539062 774.203125 609.828125 773.992188 610.105469 773.761719 C 611.445312 772.785156 612.640625 771.660156 613.703125 770.386719 C 614.761719 769.113281 615.648438 767.730469 616.363281 766.234375 C 617.082031 764.742188 617.601562 763.183594 617.933594 761.558594 C 618.261719 759.9375 618.390625 758.296875 618.3125 756.640625 L 615.539062 473.875 C 615.582031 472.234375 615.425781 470.609375 615.066406 469.003906 C 614.710938 467.398438 614.167969 465.859375 613.429688 464.386719 C 612.695312 462.917969 611.792969 461.558594 610.726562 460.308594 C 609.65625 459.058594 608.449219 457.957031 607.109375 457.007812 C 606.742188 456.710938 606.328125 456.445312 605.929688 456.179688 C 605.457031 455.871094 604.964844 455.59375 604.453125 455.351562 C 603.449219 454.773438 602.40625 454.28125 601.324219 453.878906 L 601.21875 453.878906 C 599.988281 453.457031 598.730469 453.15625 597.441406 452.976562 C 596.925781 452.886719 596.410156 452.886719 595.964844 452.84375 C 595.214844 452.726562 594.488281 452.667969 593.722656 452.621094 L 528.527344 453.257812 C 538.914062 445.226562 548.570312 436.402344 557.503906 426.777344 C 580.644531 401.363281 604.246094 367.59375 600.144531 331.386719 C 599.949219 329.03125 599.628906 326.6875 599.1875 324.367188 C 598.746094 322.042969 598.183594 319.746094 597.5 317.484375 C 596.816406 315.21875 596.015625 312.996094 595.097656 310.816406 C 594.179688 308.636719 593.152344 306.511719 592.007812 304.441406 C 590.867188 302.367188 589.621094 300.363281 588.265625 298.425781 C 586.910156 296.484375 585.460938 294.621094 583.910156 292.835938 C 582.359375 291.046875 580.71875 289.347656 578.988281 287.734375 C 577.261719 286.121094 575.449219 284.605469 573.5625 283.183594 C 571.652344 281.878906 569.683594 280.675781 567.648438 279.570312 C 565.617188 278.46875 563.535156 277.472656 561.402344 276.585938 C 559.265625 275.695312 557.09375 274.917969 554.878906 274.253906 C 552.664062 273.589844 550.421875 273.039062 548.152344 272.601562 C 545.882812 272.167969 543.59375 271.847656 541.292969 271.648438 C 538.988281 271.445312 536.683594 271.363281 534.371094 271.398438 C 532.058594 271.433594 529.753906 271.589844 527.460938 271.859375 C 525.164062 272.132812 522.886719 272.523438 520.632812 273.027344 C 483.867188 280.140625 459.910156 314.355469 447.101562 347.046875 C 445.371094 351.476562 443.851562 355.902344 442.480469 360.507812 C 441.003906 355.992188 439.441406 351.535156 437.578125 347.136719 C 424.164062 314.796875 399.542969 280.953125 362.628906 274.546875 C 360.367188 274.082031 358.085938 273.734375 355.789062 273.507812 C 353.488281 273.277344 351.183594 273.164062 348.875 273.171875 C 346.566406 273.175781 344.261719 273.300781 341.964844 273.546875 C 339.667969 273.789062 337.390625 274.148438 335.128906 274.625 C 332.867188 275.101562 330.636719 275.691406 328.4375 276.398438 C 326.238281 277.105469 324.082031 277.917969 321.964844 278.847656 C 319.851562 279.773438 317.785156 280.808594 315.777344 281.945312 C 313.765625 283.085938 311.820312 284.324219 309.9375 285.660156 C 308.078125 287.125 306.296875 288.679688 304.601562 290.332031 C 302.902344 291.980469 301.296875 293.71875 299.785156 295.535156 C 298.269531 297.355469 296.855469 299.25 295.542969 301.222656 C 294.230469 303.191406 293.023438 305.222656 291.921875 307.320312 C 290.824219 309.417969 289.839844 311.566406 288.96875 313.765625 C 288.09375 315.96875 287.339844 318.207031 286.707031 320.488281 C 286.070312 322.769531 285.554688 325.074219 285.164062 327.410156 C 284.773438 329.746094 284.503906 332.09375 284.359375 334.457031 C 280.964844 370.734375 305.199219 404.046875 328.84375 429.007812 C 337.96875 438.464844 347.808594 447.101562 358.363281 454.925781 L 299.179688 455.5 C 296.839844 455.535156 294.5625 455.921875 292.34375 456.667969 C 291.523438 456.371094 290.6875 456.125 289.835938 455.929688 C 288.988281 455.738281 288.128906 455.59375 287.257812 455.503906 C 286.390625 455.410156 285.519531 455.375 284.648438 455.386719 C 283.777344 455.402344 282.90625 455.46875 282.042969 455.585938 C 281.179688 455.703125 280.324219 455.875 279.480469 456.097656 C 278.636719 456.316406 277.808594 456.589844 276.996094 456.910156 C 276.183594 457.230469 275.394531 457.601562 274.628906 458.019531 C 273.863281 458.433594 273.125 458.894531 272.410156 459.402344 C 271.699219 459.90625 271.023438 460.453125 270.378906 461.039062 C 269.730469 461.628906 269.125 462.253906 268.554688 462.914062 C 267.984375 463.574219 267.457031 464.265625 266.96875 464.992188 C 266.484375 465.714844 266.042969 466.46875 265.644531 467.246094 C 265.25 468.023438 264.902344 468.820312 264.601562 469.640625 C 264.300781 470.460938 264.054688 471.292969 263.855469 472.144531 C 263.65625 472.996094 263.507812 473.851562 263.410156 474.71875 C 263.316406 475.585938 263.273438 476.457031 263.28125 477.332031 L 265.953125 760.023438 C 265.96875 760.894531 266.035156 761.761719 266.152344 762.625 C 266.269531 763.488281 266.4375 764.34375 266.65625 765.1875 C 266.878906 766.03125 267.148438 766.855469 267.46875 767.667969 C 267.785156 768.480469 268.152344 769.269531 268.566406 770.035156 C 268.980469 770.800781 269.441406 771.542969 269.941406 772.253906 C 270.445312 772.964844 270.988281 773.644531 271.574219 774.292969 C 272.160156 774.9375 272.78125 775.546875 273.4375 776.121094 C 274.09375 776.691406 274.785156 777.222656 275.503906 777.714844 C 276.226562 778.203125 276.976562 778.648438 277.75 779.046875 C 278.523438 779.445312 279.320312 779.796875 280.136719 780.101562 C 280.953125 780.40625 281.785156 780.660156 282.632812 780.863281 C 283.480469 781.070312 284.339844 781.222656 285.203125 781.324219 C 286.070312 781.425781 286.9375 781.472656 287.808594 781.472656 C 288.683594 781.46875 289.550781 781.414062 290.414062 781.304688 C 291.28125 781.199219 292.136719 781.039062 292.980469 780.832031 C 293.828125 780.621094 294.660156 780.359375 295.472656 780.050781 Z M 482.507812 382.160156 C 483.472656 376.257812 484.964844 370.492188 486.980469 364.863281 C 489 359.230469 491.511719 353.832031 494.515625 348.660156 C 497.523438 343.492188 500.972656 338.636719 504.863281 334.09375 C 508.757812 329.554688 513.027344 325.40625 517.679688 321.644531 C 519.585938 320.183594 521.640625 318.980469 523.84375 318.035156 C 526.046875 317.085938 528.335938 316.421875 530.703125 316.046875 C 533.074219 315.667969 535.453125 315.585938 537.84375 315.804688 C 540.234375 316.019531 542.558594 316.523438 544.824219 317.320312 C 547.621094 318.664062 549.980469 320.554688 551.910156 322.988281 C 554.132812 326.660156 555.542969 330.621094 556.144531 334.871094 C 556.503906 339.191406 556.203125 343.46875 555.242188 347.695312 C 553.789062 353.734375 551.539062 359.460938 548.5 364.875 C 542.1875 376.167969 534.597656 386.519531 525.726562 395.929688 C 518.554688 403.792969 510.816406 411.039062 502.5 417.675781 C 494.1875 424.3125 485.402344 430.253906 476.148438 435.5 C 476.519531 417.511719 478.640625 399.730469 482.507812 382.160156 Z M 463.320312 498.246094 L 571.480469 497.195312 L 573.753906 734.148438 L 465.636719 735.195312 Z M 336.59375 366.882812 C 333.410156 361.535156 331.019531 355.851562 329.421875 349.835938 C 328.375 345.625 327.980469 341.355469 328.242188 337.023438 C 328.78125 332.769531 330.121094 328.785156 332.269531 325.070312 C 334.148438 322.59375 336.476562 320.652344 339.25 319.253906 C 341.5 318.417969 343.816406 317.867188 346.199219 317.609375 C 348.582031 317.347656 350.964844 317.382812 353.339844 317.714844 C 355.714844 318.042969 358.011719 318.660156 360.234375 319.5625 C 362.457031 320.464844 364.535156 321.628906 366.46875 323.046875 C 371.191406 326.71875 375.546875 330.789062 379.527344 335.257812 C 383.507812 339.726562 387.046875 344.519531 390.152344 349.636719 C 393.257812 354.753906 395.871094 360.109375 397.992188 365.703125 C 400.117188 371.300781 401.71875 377.039062 402.792969 382.925781 C 406.988281 400.398438 409.449219 418.109375 410.171875 436.0625 C 400.828125 431 391.941406 425.238281 383.507812 418.777344 C 375.074219 412.3125 367.199219 405.230469 359.886719 397.523438 C 350.863281 388.261719 343.097656 378.042969 336.59375 366.867188 Z M 307.753906 499.722656 L 419.042969 498.65625 L 421.328125 735.609375 L 310.042969 736.671875 Z M 307.753906 499.722656 " fill-opacity="1" fill-rule="nonzero"/></g><g clip-path="url(#b497000d09)"><g clip-path="url(#a77dd41eb8)"><g clip-path="url(#50e4d0f84a)"><g transform="matrix(1, 0, 0, 1, 55, 44)"><g clip-path="url(#6ccaf1c674)"><g clip-path="url(#7a212ad42a)"><g clip-path="url(#e9e02f75ba)"><g clip-path="url(#9542c4dd9b)"><path fill="#ffffff" d="M 54.710938 -43.800781 L 832.832031 51.25 L 731.097656 884.085938 L -47.023438 789.035156 Z M 54.710938 -43.800781 " fill-opacity="1" fill-rule="nonzero"/></g></g></g></g></g></g></g></g></g></g><g clip-path="url(#fed33958d1)"><g clip-path="url(#f649c30efe)"><g transform="matrix(1, 0, 0, 1, 450, 311)"><g clip-path="url(#07a0144c1a)"><g clip-path="url(#3cb6b5f415)"><g clip-path="url(#289fa3f6ea)"><path fill="#ff5757" d="M 0.414062 0.378906 L 580.046875 0.378906 L 580.046875 580.011719 L 0.414062 580.011719 Z M 0.414062 0.378906 " fill-opacity="1" fill-rule="nonzero"/></g></g></g></g></g></g></svg>